<svg width="734" height="567" viewBox="0 0 734 567" fill="none" xmlns="http://www.w3.org/2000/svg">
<g id="card-shadow 3" clip-path="url(#clip0_2407_2)">
<g id="Clip path group">
<mask id="mask0_2407_2" style="mask-type:luminance" maskUnits="userSpaceOnUse" x="0" y="0" width="734" height="567">
<g id="clip0_1613_56">
<path id="Vector" d="M734 0H0V567H734V0Z" fill="white"/>
</g>
</mask>
<g mask="url(#mask0_2407_2)">
<g id="Frame 2">
<g id="Group 540">
<g id="verse" class="verse">
<path id="bg" d="M707.868 256.946L349.336 132.466C344.119 130.654 337.542 132.997 334.645 137.699L222.616 319.523C219.719 324.224 221.6 329.504 226.817 331.315L585.348 455.796C590.565 457.607 597.142 455.264 600.039 450.563L712.069 268.738C714.965 264.037 713.084 258.757 707.868 256.946Z" fill="url(#paint0_linear_2407_2)"/>
<g id="Card 3 Mask">
<g id="Mask group">
<mask id="mask1_2407_2" style="mask-type:alpha" maskUnits="userSpaceOnUse" x="217" y="129" width="500" height="330">
<g id="Group">
<path id="bg_2" d="M716.913 260.087L339.89 129.186L217.371 328.036L594.394 458.936L716.913 260.087Z" fill="#ED713C"/>
</g>
</mask>
<g mask="url(#mask1_2407_2)">
<g id="Group_2">
<path id="Ellipse 2" opacity="0.1" d="M415.962 408.6C401.073 432.732 360.299 451.035 294.987 454.589C231.501 458.043 152.225 446.801 72.8664 419.285C-6.49252 391.768 -69.2549 353.761 -106.854 315.257C-145.535 275.646 -153.334 240.501 -138.445 216.369C-123.556 192.236 -82.7822 173.933 -17.47 170.38C46.0158 166.926 125.292 178.167 204.651 205.684C284.01 233.2 346.772 271.208 384.371 309.711C423.052 349.323 430.851 384.467 415.962 408.6Z" fill="#333333" stroke="#333333" stroke-width="36"/>
<path id="Ellipse 1" opacity="0.1" d="M1111.68 361.868C1091.53 394.529 1044.71 418.08 978.146 425.943C912.329 433.717 831.821 425.309 752.916 397.95C674.011 370.591 613.331 330.045 578.613 287.412C543.503 244.296 537.123 202.298 557.274 169.637C577.424 136.976 624.245 113.425 690.808 105.562C756.625 97.7879 837.133 106.197 916.038 133.555C994.943 160.914 1055.62 201.461 1090.34 244.094C1125.45 287.21 1131.83 329.207 1111.68 361.868Z" fill="#333333" stroke="#333333" stroke-width="36"/>
</g>
</g>
</g>
</g>
<text id="12/24" transform="matrix(0.944682 0.327989 -0.524564 0.851371 541.835 394.248)" fill="white" xml:space="preserve" style="white-space: pre" font-family="Inter" font-size="13.9984" letter-spacing="0em"><tspan x="0" y="13.5903">07/26</tspan></text>
<text id="2468" transform="matrix(0.944682 0.327989 -0.524564 0.851371 324.071 315.541)" fill="white" xml:space="preserve" style="white-space: pre" font-family="Inter" font-size="13.9984" letter-spacing="0em"><tspan x="0" y="13.5903">2468</tspan></text>
<g id="Group 93">
<path id="Ellipse 4" d="M294.545 319.089C295.87 319.549 297.542 318.954 298.278 317.76C299.015 316.566 298.537 315.226 297.212 314.767C295.887 314.307 294.216 314.902 293.479 316.096C292.743 317.29 293.22 318.63 294.545 319.089Z" fill="white"/>
<path id="Ellipse 3" d="M270.549 310.769C271.875 311.229 273.546 310.634 274.282 309.44C275.019 308.246 274.542 306.906 273.216 306.447C271.891 305.987 270.22 306.582 269.483 307.776C268.747 308.97 269.224 310.31 270.549 310.769Z" fill="white"/>
<path id="Ellipse 2_2" d="M282.547 314.929C283.873 315.389 285.544 314.794 286.28 313.6C287.017 312.406 286.54 311.066 285.214 310.607C283.889 310.147 282.218 310.742 281.481 311.936C280.745 313.13 281.222 314.47 282.547 314.929Z" fill="white"/>
<path id="Ellipse 1_2" d="M258.552 306.609C259.878 307.069 261.549 306.474 262.285 305.28C263.022 304.086 262.545 302.746 261.219 302.287C259.894 301.827 258.223 302.422 257.486 303.616C256.75 304.81 257.227 306.15 258.552 306.609Z" fill="white"/>
</g>
<text id="Cart&#195;&#131;&#194;&#163;o de cr&#195;&#131;&#194;&#169;dito" transform="matrix(0.944682 0.327989 -0.524564 0.851371 275.558 273.729)" fill="white" xml:space="preserve" style="white-space: pre" font-family="Inter" font-size="11.9987" letter-spacing="0em"><tspan x="0" y="11.8631">Cart&#xe3;o de cr&#xe9;dito</tspan></text>
<g id="Logo">
<path id="Vector_2" d="M629.542 259.043L644.12 264.105L629.562 287.732L614.984 282.67L629.542 259.043Z" fill="#FF8AA2"/>
<g id="Logo 2">
<path id="Vector_2_2" d="M623.188 271.178C626.146 266.378 631.268 262.988 636.807 261.566C635.219 258.582 632.401 256.134 628.514 254.785C619.303 251.587 607.711 255.721 602.593 264.028C597.475 272.335 600.785 281.642 609.995 284.84C613.882 286.19 618.192 286.217 622.25 285.193C620.08 281.146 620.23 275.979 623.188 271.178Z" fill="#FD6887"/>
<path id="Vector_3" d="M656.51 282.747C651.392 291.054 639.799 295.188 630.59 291.991C626.702 290.641 623.884 288.193 622.296 285.209C627.881 283.804 632.957 280.398 635.915 275.597C638.873 270.797 638.997 265.671 636.853 261.582C640.911 260.559 645.22 260.585 649.108 261.935C658.318 265.133 661.603 274.481 656.51 282.747Z" fill="#FD6887"/>
</g>
</g>
<path id="Rectangle 57" d="M677.144 327.692L298.272 196.325L282.52 221.857L661.391 353.224L677.144 327.692Z" fill="#F7F8FD"/>
</g>
<g id="front" class="front">
<path id="card4bg" d="M380.501 42.4658L24.4866 173.982C19.3057 175.896 16.1314 181.805 17.3966 187.181L66.336 395.134C67.6012 400.51 72.8268 403.317 78.0078 401.403L434.022 269.887C439.203 267.973 442.377 262.064 441.112 256.688L392.172 48.7348C390.907 43.3586 385.682 40.5519 380.501 42.4658Z" fill="url(#paint1_linear_2407_2)"/>
<text id="12/24_2" transform="matrix(0.938091 -0.346542 0.229089 0.973443 357.069 246.831)" fill="white" xml:space="preserve" style="white-space: pre" font-family="Inter" font-size="14" letter-spacing="0em"><tspan x="0" y="13.5909">07/26</tspan></text>
<text id="5294" transform="matrix(0.938091 -0.346542 0.229089 0.973443 93.1729 344.317)" fill="white" xml:space="preserve" style="white-space: pre" font-family="Inter" font-size="14" letter-spacing="0em"><tspan x="0" y="13.5909">0000 0000 0000 0000</tspan></text>
<g id="mastercard_logo">
<path id="Vector_4" d="M328.318 99.324L342.795 93.9763L349.154 120.998L334.678 126.346L328.318 99.324Z" fill="#FF5F00"/>
<g id="Group_3">
<path id="Vector_5" d="M328.09 143.563L327.416 140.698C327.158 139.6 326.346 139.122 325.243 139.529C324.691 139.733 324.139 140.145 323.871 140.918C323.426 140.512 322.899 140.395 322.21 140.65C321.75 140.82 321.324 141.132 321.08 141.793L320.945 141.221L319.98 141.577L321.059 146.16L322.024 145.804L321.428 143.273C321.237 142.462 321.561 141.927 322.205 141.689C322.848 141.452 323.271 141.763 323.451 142.526L324.046 145.057L325.011 144.7L324.416 142.17C324.225 141.358 324.594 140.807 325.192 140.586C325.835 140.348 326.258 140.659 326.438 141.423L327.033 143.953L328.09 143.563ZM341.304 133.7L339.741 134.277L339.416 132.893L338.451 133.249L338.776 134.634L337.903 134.956L338.117 135.863L338.99 135.541L339.484 137.641C339.731 138.692 340.291 139.159 341.394 138.752C341.808 138.599 342.233 138.286 342.51 137.976L342.032 137.219C341.801 137.512 341.491 137.678 341.261 137.763C340.802 137.933 340.55 137.715 340.438 137.237L339.955 135.184L341.517 134.607L341.304 133.7ZM349.462 130.582C348.91 130.786 348.61 131.208 348.47 131.675L348.335 131.102L347.37 131.459L348.449 136.042L349.414 135.686L348.807 133.108C348.627 132.344 348.848 131.795 349.445 131.575C349.629 131.507 349.87 131.47 350.065 131.449L350.116 130.393C349.921 130.413 349.645 130.514 349.462 130.582ZM337.212 135.627C336.673 135.462 335.996 135.557 335.307 135.811C334.204 136.219 333.604 137.063 333.817 137.97C333.997 138.734 334.65 138.96 335.648 138.747L336.119 138.625C336.647 138.534 336.957 138.575 337.013 138.814C337.091 139.148 336.78 139.522 336.136 139.76C335.493 139.998 334.931 139.946 334.553 139.826L334.274 140.76C334.869 140.955 335.603 140.891 336.293 140.636C337.579 140.161 338.169 139.269 337.967 138.409C337.776 137.598 337.077 137.389 336.124 137.585L335.653 137.707C335.228 137.812 334.884 137.836 334.817 137.549C334.738 137.215 335.015 136.905 335.521 136.719C336.072 136.515 336.68 136.55 336.989 136.591L337.212 135.627ZM362.743 125.676C362.191 125.88 361.891 126.302 361.751 126.769L361.616 126.196L360.651 126.553L361.73 131.136L362.695 130.779L362.088 128.201C361.909 127.438 362.129 126.889 362.727 126.668C362.911 126.6 363.152 126.563 363.347 126.543L363.398 125.486C363.203 125.506 362.927 125.608 362.743 125.676ZM350.989 132.613C351.314 133.998 352.469 134.661 353.894 134.134C354.537 133.897 354.963 133.584 355.333 133.032L354.682 132.39C354.382 132.812 354.048 133.091 353.635 133.244C352.853 133.533 352.167 133.164 351.954 132.257C351.751 131.397 352.168 130.621 352.938 130.284C353.352 130.131 353.753 130.139 354.188 130.29L354.457 129.308C353.907 129.096 353.414 129.123 352.771 129.36C351.346 129.887 350.663 131.229 350.989 132.613ZM359.904 129.32L359.365 127.028L358.4 127.384L358.535 127.957C358.112 127.647 357.596 127.578 356.998 127.798C355.758 128.257 355.029 129.616 355.354 131C355.68 132.385 356.881 133.031 358.122 132.572C358.765 132.335 359.169 131.926 359.343 131.395L359.478 131.968L360.443 131.611L359.904 129.32ZM356.365 130.627C356.174 129.815 356.523 128.96 357.35 128.655C358.131 128.366 358.829 128.783 359.031 129.642C359.222 130.454 358.828 131.326 358.046 131.614C357.208 131.872 356.556 131.438 356.365 130.627ZM344.269 132.501C342.982 132.976 342.287 134.271 342.624 135.703C342.961 137.135 344.105 137.75 345.438 137.258C346.081 137.02 346.68 136.592 347.084 135.975L346.456 135.429C346.156 135.851 345.741 136.212 345.282 136.382C344.684 136.602 344.02 136.537 343.691 135.776L346.954 134.57L346.864 134.189C346.561 132.692 345.509 132.043 344.268 132.501H344.269ZM344.471 133.36C345.068 133.14 345.572 133.369 345.832 134.051L343.534 134.9C343.48 134.245 343.782 133.615 344.471 133.36ZM368.774 126.043L367.807 121.937L366.842 122.294L367.404 124.681C366.981 124.37 366.465 124.301 365.868 124.522C364.627 124.98 363.898 126.339 364.224 127.724C364.55 129.108 365.751 129.754 366.992 129.296C367.635 129.058 368.038 128.65 368.213 128.118L368.348 128.691L369.313 128.335L368.774 126.043ZM365.235 127.35C365.044 126.539 365.392 125.684 366.219 125.378C367.001 125.089 367.698 125.506 367.9 126.366C368.091 127.177 367.697 128.049 366.916 128.338C366.077 128.596 365.426 128.162 365.235 127.35ZM332.974 139.268L332.434 136.976L331.469 137.333L331.604 137.906C331.181 137.595 330.665 137.526 330.068 137.747C328.827 138.205 328.098 139.564 328.424 140.949C328.75 142.333 329.951 142.979 331.192 142.521C331.835 142.283 332.238 141.875 332.413 141.343L332.548 141.916L333.513 141.56L332.974 139.268ZM329.389 140.592C329.198 139.781 329.546 138.925 330.373 138.62C331.155 138.331 331.852 138.748 332.055 139.607C332.246 140.419 331.851 141.291 331.07 141.58C330.232 141.838 329.58 141.404 329.389 140.592Z" fill="white"/>
<path id="Vector_6" d="M332.417 112.495C331.125 107.005 332.46 101.219 335.533 96.6587C332.191 95.4026 328.326 95.3254 324.466 96.7514C315.32 100.13 309.73 110.549 311.966 120.05C314.202 129.551 323.41 134.504 332.555 131.125C336.416 129.699 339.628 127.008 341.892 123.68C337.348 121.986 333.709 117.986 332.417 112.495Z" fill="#E51D37"/>
<path id="Vector_7" d="M365.505 100.272C367.741 109.773 362.151 120.193 353.006 123.571C349.145 124.997 345.281 124.92 341.938 123.664C345.057 119.087 346.347 113.317 345.055 107.827C343.763 102.337 340.135 98.3838 335.579 96.6418C337.843 93.3148 341.056 90.6231 344.916 89.197C354.061 85.8186 363.281 90.8195 365.505 100.272Z" fill="#F79E1B"/>
</g>
</g>
<text id="Nikola Tesla" transform="matrix(0.938091 -0.346542 0.229089 0.973443 59.4377 200.971)" fill="white" xml:space="preserve" style="white-space: pre" font-family="Sora" font-size="18" font-weight="bold" letter-spacing="0em"><tspan x="0" y="17.62">Nikola Tesla</tspan></text>
<g id="Group_2_2">
<path id="Rectangle" d="M110.386 257.785L80.5042 268.823C77.9137 269.78 76.3266 272.735 76.9592 275.423L81.0675 292.88C81.7001 295.569 84.313 296.972 86.9034 296.015L116.785 284.976C119.375 284.019 120.962 281.065 120.33 278.377L116.221 260.919C115.589 258.231 112.976 256.828 110.386 257.785Z" fill="url(#paint2_radial_2407_2)"/>
<g id="Group_3_2">
<path id="Path" fill-rule="evenodd" clip-rule="evenodd" d="M95.5086 263.575L92.8184 272.292C92.8184 272.292 96.0267 277.866 95.536 283.84L101.78 290.223L104.261 280.617C104.261 280.617 101.471 276.82 101.543 269.069L95.5086 263.575Z" stroke="#C7C7B6" stroke-width="1.3" stroke-linejoin="bevel"/>
<path id="Line 5" d="M77.6267 278.259L92.8953 272.619" stroke="#C7C7B6" stroke-width="1.3" stroke-linejoin="bevel"/>
<path id="Line 5_2" d="M101.184 269.557L116.888 263.755" stroke="#C7C7B6" stroke-width="1.3" stroke-linejoin="bevel"/>
<path id="Line 5_3" d="M80.1863 289.136L95.455 283.495" stroke="#C7C7B6" stroke-width="1.3" stroke-linejoin="bevel"/>
<path id="Line 5_4" d="M103.743 280.433L119.448 274.632" stroke="#C7C7B6" stroke-width="1.3" stroke-linejoin="bevel"/>
</g>
</g>
</g>
<g id="shadow" filter="url(#filter0_f_2407_2)">
<path id="Vector_8" class="shadow" d="M367.126 528C532.811 528 667.126 516.807 667.126 503C667.126 489.193 532.811 478 367.126 478C201.441 478 67.126 489.193 67.126 503C67.126 516.807 201.441 528 367.126 528Z" fill="#131313" fill-opacity="0.3"/>
</g>
</g>
</g>
</g>
</g>
</g>
<defs>
<filter id="filter0_f_2407_2" x="21.126" y="432" width="692" height="142" filterUnits="userSpaceOnUse" color-interpolation-filters="sRGB">
<feFlood flood-opacity="0" result="BackgroundImageFix"/>
<feBlend mode="normal" in="SourceGraphic" in2="BackgroundImageFix" result="shape"/>
<feGaussianBlur stdDeviation="23" result="effect1_foregroundBlur_2407_2"/>
</filter>
<linearGradient id="paint0_linear_2407_2" x1="425.61" y1="120.834" x2="359.357" y2="427.577" gradientUnits="userSpaceOnUse">
<stop stop-color="#E23B51"/>
<stop offset="1" stop-color="#8A3B45"/>
</linearGradient>
<linearGradient id="paint1_linear_2407_2" x1="72.5639" y1="117.191" x2="221.259" y2="403.652" gradientUnits="userSpaceOnUse">
<stop stop-color="#E23B51"/>
<stop offset="1" stop-color="#8A3B45"/>
</linearGradient>
<radialGradient id="paint2_radial_2407_2" cx="0" cy="0" r="1" gradientUnits="userSpaceOnUse" gradientTransform="translate(100.691 272.132) rotate(123.79) scale(30.0334 26.4301)">
<stop stop-color="white"/>
<stop offset="1" stop-color="#DDDCDA"/>
</radialGradient>
<clipPath id="clip0_2407_2">
<rect width="734" height="567" fill="white"/>
</clipPath>
</defs>
</svg>
