<svg width="42" height="51" viewBox="0 0 42 51" fill="none" xmlns="http://www.w3.org/2000/svg">
<path fill-rule="evenodd" clip-rule="evenodd" d="M39.0887 9.65804V5.28844L39.0886 5.2898C39.0886 5.2898 39.0884 5.28879 39.0881 5.28674C39.0862 5.27355 39.0781 5.21752 39.0438 5.11537C39.0015 4.98955 38.9301 4.82592 38.8214 4.63739C38.6043 4.26077 38.2557 3.81509 37.7492 3.39883C36.754 2.581 35.1047 1.84087 32.5377 2.02969C28.1873 2.34967 24.6511 3.80397 22.0198 5.77486C24.2396 7.90392 25.7035 10.4099 26.2796 12.8909C26.4774 12.6406 26.6881 12.401 26.9096 12.1738C28.3359 10.7113 30.3186 9.65804 32.4643 9.65804H39.0887ZM15.641 49.5714C16.1637 49.9405 16.8105 50.0773 17.4827 50.0773H23.6496C24.4752 50.0773 25.2625 49.8708 25.8286 49.2812C26.3873 48.6993 26.5558 47.9249 26.5558 47.1783V16.9946C26.7225 15.8094 27.3641 14.5723 28.3415 13.5701C29.4825 12.4001 30.9756 11.658 32.4643 11.658H40.0887H41.0887V10.658V5.28563C41.0887 4.78197 40.869 4.18474 40.5541 3.63852C40.2198 3.05863 39.716 2.42644 39.019 1.85364C37.607 0.693331 35.4442 -0.1895 32.3909 0.0350755C27.5235 0.393098 23.475 2.0934 20.4704 4.44707C17.481 2.15732 13.4854 0.509657 8.69785 0.158215C5.64515 -0.0658758 3.48253 0.814999 2.07052 1.97304C1.37343 2.54476 0.869517 3.17582 0.535062 3.75483C0.220106 4.30008 0 4.89678 0 5.40044V10.7623V11.7623H1H8.62464C10.1141 11.7623 11.6075 12.5033 12.7483 13.6708C13.7261 14.6715 14.3674 15.9063 14.5336 17.0888V47.1456C14.5336 47.893 14.7019 48.668 15.2601 49.2506C15.378 49.3736 15.5056 49.48 15.641 49.5714ZM14.775 12.9463C14.587 12.7118 14.3877 12.4869 14.1788 12.273C12.7523 10.8132 10.7697 9.76231 8.62464 9.76231H2V5.40044C2 5.40047 2.00002 5.40031 2.00008 5.39996C2.00188 5.38795 2.03708 5.15306 2.2669 4.7552C2.48388 4.37957 2.8323 3.93488 3.33881 3.51947C4.33403 2.70326 5.98373 1.96436 8.55143 2.15285C12.8291 2.46686 16.3194 3.87517 18.9362 5.79165C16.7455 7.94125 15.3145 10.4607 14.775 12.9463ZM16.5336 16.9594V15.135C16.5336 12.5642 17.8971 9.56382 20.4853 7.07656C23.1508 9.5806 24.5558 12.627 24.5558 15.2305V16.865C24.5273 17.1083 24.5126 17.3527 24.5126 17.5974V47.1456C24.5126 47.6295 24.4006 47.8058 24.3421 47.8668C24.2915 47.9197 24.126 48.0484 23.6065 48.0484H17.4397C17.0615 48.0484 16.8709 47.9801 16.7757 47.9226C16.7631 47.9126 16.7536 47.9036 16.7463 47.896C16.6883 47.8356 16.5765 47.6606 16.5765 47.1783V17.6881C16.5765 17.4446 16.5619 17.2014 16.5336 16.9594Z" fill="url(#paint0_linear_1319_230)"/>
<defs>
<linearGradient id="paint0_linear_1319_230" x1="34.72" y1="6.76044" x2="1.63909" y2="38.0474" gradientUnits="userSpaceOnUse">
<stop stop-color="#EB3850"/>
<stop offset="1" stop-color="#CB162E"/>
</linearGradient>
</defs>
</svg>
